# xmcd
#
# Track frame offsets: 
#        150
#        23220
#        35131
#        43902
#        58098
#        84552
#        95370
#        110361
#        122561
#        136193
#        167118
#
# Disc length: 2321 seconds
#
# Revision: 0
# Processed by: cddbd v1.5.2PL0 Copyright (c) Steve Scherf et al.
# Submitted via: ExactAudioCopyFreeDBPlugin 1.0
#
DISCID=92090f0b
DTITLE=The Wildcards - When The Moon Shines Bright
DYEAR=2010
DGENRE=Blues
TTITLE0=When The Moon Shines Bright
TTITLE1=Women Are The Root Of All Evil
TTITLE2=She Can Rock
TTITLE3=Chocolate Shake
TTITLE4=Out Of Control
TTITLE5=Got Sumpin' For You
TTITLE6=Dead Cat Bounce
TTITLE7=Gal From Kokomo
TTITLE8=Sweet Baby Of Mine
TTITLE9=Welcome To The Snakepit
TTITLE10=Women Are The Root Of All Evil
EXTD=
EXTT0=
EXTT1=
EXTT2=
EXTT3=
EXTT4=
EXTT5=
EXTT6=
EXTT7=
EXTT8=
EXTT9=
EXTT10=
PLAYORDER=
